<?xml version="1.0" encoding="UTF-8"?>
<svg width="247px" height="242px" viewBox="0 0 247 242" version="1.1" xmlns="http://www.w3.org/2000/svg" xmlns:xlink="http://www.w3.org/1999/xlink">
    <!-- Generator: Sketch 47.1 (45422) - http://www.bohemiancoding.com/sketch -->
    <title>Group Copy 2</title>
    <desc>Created with Sketch.</desc>
    <defs>
        <path d="M39.8291889,106.275703 C39.8319428,106.275105 39.834697,106.274508 39.8374516,106.273911 C39.8308359,105.97146 39.8275109,105.668199 39.8275109,105.364162 C39.8275109,82.800297 58.1408242,64.5086705 80.731441,64.5086705 C80.867764,64.5086705 81.0039312,64.5093366 81.1399396,64.5106657 C88.6379102,55.943423 99.6600279,50.5317919 111.947598,50.5317919 C120.827814,50.5317919 129.047092,53.3582543 135.752861,58.1596188 C135.752861,54.0394044 135.752861,48.4466305 135.752861,41.3812973 C135.752861,26.5400964 151.178033,0.104994581 181.90013,0.104994581 C212.622228,0.104994581 223.072004,24.1634529 223.072004,41.3812973 C223.072004,52.8598602 223.072004,96.5887835 223.072004,172.568067 L245.624098,172.568067 L245.624098,185.853008 L185.259736,185.853008 L185.331213,172.861163 L206.367644,172.861163 C206.367644,88.9423711 206.367644,45.1157491 206.367644,41.3812973 C206.367644,35.7796195 203.378058,16.7277366 181.90013,16.7277366 C160.422203,16.7277366 155.014879,31.1614328 155.893674,41.3812973 C156.256995,45.6065038 156.670984,48.5990478 157.135642,50.3589292 C157.445717,50.9693907 157.748192,51.5843535 158.042943,52.2036934 C158.044133,52.2042704 158.045322,52.2048411 158.046513,52.2054055 L158.044251,52.2064399 C162.997066,62.6144728 165.768559,74.2585277 165.768559,86.5491329 C165.768559,107.33783 157.839497,126.276789 144.837251,140.513512 L144.837251,185.969742 L101.786601,185.969742 C99.3900121,173.333167 92.9126382,167.01488 82.3544794,167.01488 C71.7963206,167.01488 65.3188839,173.333167 62.9221692,185.969742 L20.3730455,185.969742 L20.3730455,147.686207 C8.78267104,145.504567 2.09186937,140.369355 0.300640523,132.280573 C0.294333379,132.13358 8.24958366,140.491149 20.3730455,138.109872 C20.412269,138.077444 24.0191107,113.649224 36.6234213,107.404614 C37.4166684,131.054011 56.8609226,149.982659 80.731441,149.982659 C99.6341892,149.982659 116.25317,138.003509 122.397655,120.46828 L119.349687,119.402776 C113.655115,135.654034 98.2513743,146.757225 80.731441,146.757225 C58.2657598,146.757225 40.0302023,128.66736 39.8291889,106.275703 Z M127.555677,89.2369942 C132.608841,89.2369942 136.70524,85.1454462 136.70524,80.0982659 C136.70524,75.0510856 132.608841,70.9595376 127.555677,70.9595376 C122.502513,70.9595376 118.406114,75.0510856 118.406114,80.0982659 C118.406114,85.1454462 122.502513,89.2369942 127.555677,89.2369942 Z" id="path-1"></path>
    </defs>
    <g id="Page-1" stroke="none" stroke-width="1" fill="none" fill-rule="evenodd">
        <g id="logo-copy" transform="translate(-160.000000, -163.000000)">
            <g id="Group-Copy-2" transform="translate(160.000000, 163.000000)">
                <g id="elephanty">
                    <mask id="mask-2" fill="white">
                        <use xlink:href="#path-1"></use>
                    </mask>
                    <use id="Mask" fill="#5CB7A0" xlink:href="#path-1"></use>
                    <path d="M80.731441,147.294798 C86.6478785,147.294798 93.9530347,144.961335 99.0305677,142.70391 C59.9170115,146.215968 39.8275109,113.365799 46.196815,83.4603611 C42.1637998,89.7907345 38.7510917,97.3049365 38.7510917,105.364162 C38.7510917,128.490268 57.7098405,147.294798 80.731441,147.294798 Z" id="Oval" fill-opacity="0.1" fill="#000000" mask="url(#mask-2)"></path>
                    <ellipse id="Oval-3" fill="#000000" cx="130.784934" cy="84.3988439" rx="2.69104803" ry="2.68786127"></ellipse>
                </g>
                <path d="M24.4001788,210.161765 L24.4001788,217.705882 L20,217.705882 L20,196.294118 L28.3310052,196.294118 C29.934634,196.294118 31.3451216,196.588232 32.5625105,197.176471 C33.7798994,197.764709 34.7161503,198.600485 35.3712913,199.683824 C36.0264323,200.767162 36.3539979,201.999993 36.3539979,203.382353 C36.3539979,205.480403 35.6377537,207.134798 34.2052439,208.345588 C32.7727341,209.556379 30.7902289,210.161765 28.2576689,210.161765 L24.4001788,210.161765 Z M24.4001788,206.588235 L28.3310052,206.588235 C29.4946139,206.588235 30.3819744,206.313728 30.9931134,205.764706 C31.6042524,205.215684 31.9098173,204.431378 31.9098173,203.411765 C31.9098173,202.36274 31.6018079,201.514709 30.9857798,200.867647 C30.3697517,200.220585 29.5190589,199.887255 28.4336761,199.867647 L24.4001788,199.867647 L24.4001788,206.588235 Z M59.3849528,207.485294 C59.3849528,209.593148 59.0133859,211.441169 58.2702409,213.029412 C57.5270958,214.617655 56.4637299,215.843133 55.0801112,216.705882 C53.6964925,217.568632 52.1099995,218 50.3205845,218 C48.5507259,218 46.9715664,217.573534 45.5830586,216.720588 C44.1945508,215.867643 43.1189623,214.649518 42.3562608,213.066176 C41.5935594,211.482835 41.2073253,209.661775 41.1975471,207.602941 L41.1975471,206.544118 C41.1975471,204.436264 41.5764476,202.58089 42.3342599,200.977941 C43.0920723,199.374992 44.1627718,198.144612 45.5463905,197.286765 C46.9300092,196.428917 48.5116132,196 50.2912499,196 C52.0708867,196 53.6524907,196.428917 55.0361094,197.286765 C56.4197281,198.144612 57.4904276,199.374992 58.24824,200.977941 C59.0060523,202.58089 59.3849528,204.431362 59.3849528,206.529412 L59.3849528,207.485294 Z M54.926105,206.514706 C54.926105,204.269597 54.5252038,202.563731 53.7233894,201.397059 C52.9215751,200.230386 51.77754,199.647059 50.2912499,199.647059 C48.8147381,199.647059 47.6755921,200.223033 46.8737777,201.375 C46.0719634,202.526967 45.6661732,204.215675 45.6563949,206.441176 L45.6563949,207.485294 C45.6563949,209.67158 46.0572961,211.367641 46.8591105,212.573529 C47.6609248,213.779418 48.814738,214.382353 50.3205845,214.382353 C51.7970963,214.382353 52.9313533,213.801476 53.7233894,212.639706 C54.5154256,211.477935 54.9163267,209.784325 54.926105,207.558824 L54.926105,206.514706 Z M81.6825446,211.529412 L84.5573281,196.294118 L88.9428396,196.294118 L84.2053138,217.705882 L79.7758004,217.705882 L76.2996592,203.382353 L72.8235179,217.705882 L68.3940046,217.705882 L63.6564787,196.294118 L68.0419903,196.294118 L70.931441,211.5 L74.4515841,196.294118 L78.1770688,196.294118 L81.6825446,211.529412 Z M106.634911,208.426471 L98.1865676,208.426471 L98.1865676,214.161765 L108.101637,214.161765 L108.101637,217.705882 L93.7863888,217.705882 L93.7863888,196.294118 L108.072303,196.294118 L108.072303,199.867647 L98.1865676,199.867647 L98.1865676,204.970588 L106.634911,204.970588 L106.634911,208.426471 Z M121.056183,209.867647 L117.550707,209.867647 L117.550707,217.705882 L113.150528,217.705882 L113.150528,196.294118 L121.085517,196.294118 C123.608299,196.294118 125.554136,196.857838 126.923088,197.985294 C128.292039,199.112751 128.976504,200.705872 128.976504,202.764706 C128.976504,204.225497 128.661161,205.443623 128.030466,206.419118 C127.399771,207.394613 126.443964,208.171566 125.163016,208.75 L129.783204,217.5 L129.783204,217.705882 L125.060345,217.705882 L121.056183,209.867647 Z M117.550707,206.294118 L121.100184,206.294118 C122.205124,206.294118 123.060705,206.012258 123.666955,205.448529 C124.273205,204.884801 124.576326,204.107848 124.576326,203.117647 C124.576326,202.107838 124.290317,201.313728 123.718291,200.735294 C123.146265,200.15686 122.268682,199.867647 121.085517,199.867647 L117.550707,199.867647 L117.550707,206.294118 Z M161.500531,210.573529 C161.334301,212.877462 160.486053,214.69117 158.955761,216.014706 C157.425469,217.338242 155.40874,218 152.905515,218 C150.167612,218 148.013991,217.07599 146.444586,215.227941 C144.875181,213.379893 144.09049,210.843153 144.09049,207.617647 L144.09049,206.308824 C144.09049,204.24999 144.452279,202.436282 145.175867,200.867647 C145.899456,199.299012 146.933488,198.095592 148.277994,197.257353 C149.622499,196.419113 151.184547,196 152.964184,196 C155.428296,196 157.413246,196.661758 158.919093,197.985294 C160.424939,199.30883 161.295188,201.166655 161.529865,203.558824 L157.129687,203.558824 C157.022126,202.176464 156.638337,201.174023 155.978306,200.551471 C155.318276,199.928918 154.313579,199.617647 152.964184,199.617647 C151.49745,199.617647 150.399861,200.144603 149.671383,201.198529 C148.942906,202.252456 148.568894,203.887244 148.549338,206.102941 L148.549338,207.720588 C148.549338,210.034325 148.898904,211.725485 149.598047,212.794118 C150.29719,213.86275 151.399668,214.397059 152.905515,214.397059 C154.264688,214.397059 155.279164,214.085787 155.948972,213.463235 C156.61878,212.840683 157.00257,211.877457 157.100352,210.573529 L161.500531,210.573529 Z M171.257613,214.161765 L180.600659,214.161765 L180.600659,217.705882 L166.857434,217.705882 L166.857434,196.294118 L171.257613,196.294118 L171.257613,214.161765 Z M198.439403,208.426471 L189.99106,208.426471 L189.99106,214.161765 L199.90613,214.161765 L199.90613,217.705882 L185.590881,217.705882 L185.590881,196.294118 L199.876795,196.294118 L199.876795,199.867647 L189.99106,199.867647 L189.99106,204.970588 L198.439403,204.970588 L198.439403,208.426471 Z M217.01151,213.294118 L209.29653,213.294118 L207.829804,217.705882 L203.150947,217.705882 L211.100603,196.294118 L215.178102,196.294118 L223.171761,217.705882 L218.492904,217.705882 L217.01151,213.294118 Z M210.484578,209.720588 L215.823462,209.720588 L213.139353,201.705882 L210.484578,209.720588 Z M245,217.705882 L240.599821,217.705882 L232.03414,203.617647 L232.03414,217.705882 L227.633961,217.705882 L227.633961,196.294118 L232.03414,196.294118 L240.614488,210.411765 L240.614488,196.294118 L245,196.294118 L245,217.705882 Z" id="POWER-CLEAN" fill="#000000"></path>
                <path d="M25.858609,238.506684 C25.858609,238.014258 25.6905075,237.636254 25.3542995,237.37266 C25.0180915,237.109067 24.4129262,236.830995 23.5387853,236.538436 C22.6646445,236.245876 21.9726268,235.957666 21.4627113,235.673797 C20.0730516,234.897501 19.3782321,233.851834 19.3782321,232.536765 C19.3782321,231.853161 19.5645446,231.24343 19.9371751,230.707553 C20.3098057,230.171677 20.8449287,229.753121 21.5425603,229.451872 C22.2401919,229.150622 23.0232646,229 23.891802,229 C24.7659428,229 25.544813,229.163657 26.2284359,229.490976 C26.9120589,229.818295 27.4429794,230.2803 27.8212134,230.877005 C28.1994474,231.473711 28.3885615,232.151511 28.3885615,232.910428 L25.8670141,232.910428 C25.8670141,232.331102 25.6905076,231.880683 25.3374892,231.559158 C24.9844708,231.237632 24.4885714,231.076872 23.8497762,231.076872 C23.2333949,231.076872 22.7543056,231.211563 22.4124942,231.480949 C22.0706827,231.750336 21.8997795,232.105167 21.8997795,232.545455 C21.8997795,232.956776 22.1001005,233.301469 22.5007483,233.579545 C22.9013962,233.857622 23.4911522,234.118314 24.2700341,234.361631 C25.7045216,234.807712 26.7495524,235.360959 27.4051581,236.02139 C28.0607637,236.681821 28.3885615,237.504451 28.3885615,238.489305 C28.3885615,239.58423 27.9879197,240.443067 27.1866239,241.065842 C26.3853282,241.688617 25.306677,242 23.9506381,242 C23.0092557,242 22.1519381,241.82186 21.3786597,241.465575 C20.6053813,241.10929 20.0156253,240.621215 19.609374,240.001337 C19.2031226,239.381459 19,238.663106 19,237.846257 L21.5299526,237.846257 C21.5299526,239.242431 22.3368397,239.940508 23.9506381,239.940508 C24.550209,239.940508 25.0180915,239.814507 25.3542995,239.5625 C25.6905075,239.310493 25.858609,238.958558 25.858609,238.506684 Z M57.1459695,235.786765 C57.1459695,237.032315 56.933041,238.124327 56.5071775,239.062834 C56.081314,240.001342 55.4719462,240.725488 54.6790556,241.235294 C53.8861651,241.745101 52.9770162,242 51.9515818,242 C50.9373544,242 50.0324081,241.747997 49.2367158,241.243984 C48.4410235,240.739971 47.8246514,240.02017 47.387581,239.084559 C46.9505106,238.148948 46.729177,237.072867 46.7235735,235.856283 L46.7235735,235.230615 C46.7235735,233.985065 46.9407046,232.888708 47.3749733,231.941511 C47.8092419,230.994313 48.4228123,230.267271 49.2157029,229.760361 C50.0085934,229.253451 50.9149406,229 51.9347715,229 C52.9546025,229 53.8609496,229.253451 54.6538401,229.760361 C55.4467307,230.267271 56.0603011,230.994313 56.4945698,231.941511 C56.9288384,232.888708 57.1459695,233.982168 57.1459695,235.221925 L57.1459695,235.786765 Z M54.5908015,235.213235 C54.5908015,233.88658 54.3610628,232.878569 53.9015785,232.189171 C53.4420942,231.499774 52.7864985,231.15508 51.9347715,231.15508 C51.088648,231.15508 50.435854,231.495429 49.9763697,232.176136 C49.5168854,232.856844 49.284345,233.854717 49.2787416,235.169786 L49.2787416,235.786765 C49.2787416,237.078661 49.5084803,238.080879 49.9679645,238.793449 C50.4274488,239.50602 51.088648,239.862299 51.9515818,239.862299 C52.7977053,239.862299 53.4476977,239.519054 53.9015785,238.832553 C54.3554593,238.146053 54.585198,237.145283 54.5908015,235.830214 L54.5908015,235.213235 Z M78.4984332,239.731952 L83.8525189,239.731952 L83.8525189,241.826203 L75.9768858,241.826203 L75.9768858,229.173797 L78.4984332,229.173797 L78.4984332,239.731952 Z M111.357558,229.173797 L111.357558,237.507353 C111.357558,238.891941 110.938705,239.98685 110.100987,240.792112 C109.263269,241.597375 108.118778,242 106.66748,242 C105.238596,242 104.103911,241.608961 103.263391,240.826872 C102.422871,240.044782 101.994212,238.970149 101.977402,237.602941 L101.977402,229.173797 L104.498949,229.173797 L104.498949,237.524733 C104.498949,238.353168 104.690865,238.957106 105.074703,239.336564 C105.45854,239.716022 105.989461,239.905749 106.66748,239.905749 C108.085157,239.905749 108.805192,239.135257 108.827606,237.594251 L108.827606,229.173797 L111.357558,229.173797 Z M139.635872,231.285428 L135.887172,231.285428 L135.887172,241.826203 L133.365624,241.826203 L133.365624,231.285428 L129.667355,231.285428 L129.667355,229.173797 L139.635872,229.173797 L139.635872,231.285428 Z M160.752992,241.826203 L158.231444,241.826203 L158.231444,229.173797 L160.752992,229.173797 L160.752992,241.826203 Z M190.140786,235.786765 C190.140786,237.032315 189.927858,238.124327 189.501994,239.062834 C189.076131,240.001342 188.466763,240.725488 187.673873,241.235294 C186.880982,241.745101 185.971833,242 184.946399,242 C183.932171,242 183.027225,241.747997 182.231533,241.243984 C181.43584,240.739971 180.819468,240.02017 180.382398,239.084559 C179.945327,238.148948 179.723994,237.072867 179.71839,235.856283 L179.71839,235.230615 C179.71839,233.985065 179.935521,232.888708 180.36979,231.941511 C180.804059,230.994313 181.417629,230.267271 182.21052,229.760361 C183.00341,229.253451 183.909757,229 184.929588,229 C185.949419,229 186.855766,229.253451 187.648657,229.760361 C188.441548,230.267271 189.055118,230.994313 189.489387,231.941511 C189.923655,232.888708 190.140786,233.982168 190.140786,235.221925 L190.140786,235.786765 Z M187.585618,235.213235 C187.585618,233.88658 187.35588,232.878569 186.896395,232.189171 C186.436911,231.499774 185.781315,231.15508 184.929588,231.15508 C184.083465,231.15508 183.430671,231.495429 182.971187,232.176136 C182.511702,232.856844 182.279162,233.854717 182.273558,235.169786 L182.273558,235.786765 C182.273558,237.078661 182.503297,238.080879 182.962781,238.793449 C183.422266,239.50602 184.083465,239.862299 184.946399,239.862299 C185.792522,239.862299 186.442515,239.519054 186.896395,238.832553 C187.350276,238.146053 187.580015,237.145283 187.585618,235.830214 L187.585618,235.213235 Z M218.92341,241.826203 L216.401862,241.826203 L211.49325,233.501337 L211.49325,241.826203 L208.971703,241.826203 L208.971703,229.173797 L211.49325,229.173797 L216.410268,237.516043 L216.410268,229.173797 L218.92341,229.173797 L218.92341,241.826203 Z M244.470047,238.506684 C244.470047,238.014258 244.301946,237.636254 243.965738,237.37266 C243.62953,237.109067 243.024365,236.830995 242.150224,236.538436 C241.276083,236.245876 240.584065,235.957666 240.07415,235.673797 C238.68449,234.897501 237.989671,233.851834 237.989671,232.536765 C237.989671,231.853161 238.175983,231.24343 238.548614,230.707553 C238.921244,230.171677 239.456367,229.753121 240.153999,229.451872 C240.85163,229.150622 241.634703,229 242.50324,229 C243.377381,229 244.156251,229.163657 244.839874,229.490976 C245.523497,229.818295 246.054418,230.2803 246.432652,230.877005 C246.810886,231.473711 247,232.151511 247,232.910428 L244.478453,232.910428 C244.478453,232.331102 244.301946,231.880683 243.948928,231.559158 C243.595909,231.237632 243.10001,231.076872 242.461215,231.076872 C241.844833,231.076872 241.365744,231.211563 241.023933,231.480949 C240.682121,231.750336 240.511218,232.105167 240.511218,232.545455 C240.511218,232.956776 240.711539,233.301469 241.112187,233.579545 C241.512835,233.857622 242.102591,234.118314 242.881473,234.361631 C244.31596,234.807712 245.360991,235.360959 246.016597,236.02139 C246.672202,236.681821 247,237.504451 247,238.489305 C247,239.58423 246.599358,240.443067 245.798062,241.065842 C244.996767,241.688617 243.918115,242 242.562077,242 C241.620694,242 240.763377,241.82186 239.990098,241.465575 C239.21682,241.10929 238.627064,240.621215 238.220812,240.001337 C237.814561,239.381459 237.611438,238.663106 237.611438,237.846257 L240.141391,237.846257 C240.141391,239.242431 240.948278,239.940508 242.562077,239.940508 C243.161647,239.940508 243.62953,239.814507 243.965738,239.5625 C244.301946,239.310493 244.470047,238.958558 244.470047,238.506684 Z" id="SOLUTIONS" fill="#000000"></path>
            </g>
        </g>
    </g>
</svg>